# xmcd
#
# Track frame offsets:
#	150
#	13447
#	29427
#	45857
#	59450
#	68632
#	79855
#	92937
#	102650
#	115160
#	126057
#	144125
#
# Disc length: 2086 seconds
#
# Revision: 4
# Processed by: cddbd v1.5.2PL0 Copyright (c) Steve Scherf et al.
# Submitted via: audiograbber 1.83.01
#
DISCID=a008240c
DTITLE=Fat Boy - Vaious Artists - Time For The Blues -  Vaious Artists - Time F
DTITLE=or The Blues
DYEAR=1995
DGENRE=Blues
TTITLE0=Arbee Stidham - I Wonder Why
TTITLE1=Jack Dupree - Come Back Baby
TTITLE2=Brownie McGhee - Big Wide World
TTITLE3=Sonny Terry - Dirty Mistreater
TTITLE4=Memphis Slim - How Long Blues
TTITLE5=Leadbelly/Houston/Guthrie - Stewball
TTITLE6=Leadbelly - Keep Your Hand Off Her
TTITLE7=Arbee Stidham - Let It Be Me
TTITLE8=Lightnin' Hopkins - Fan It
TTITLE9=Sonny Terry - Beautiful City
TTITLE10=Big Bill Broonzy - Hush, Somebody Is Calling Me
TTITLE11=Brownie McGhee - Face In The Crowd
EXTD=
EXTT0=
EXTT1=
EXTT2=
EXTT3=
EXTT4=
EXTT5=
EXTT6=
EXTT7=
EXTT8=
EXTT9=
EXTT10=
EXTT11=
PLAYORDER=
